<svg width="24" height="24" viewBox="0 0 24 24" fill="none" xmlns="http://www.w3.org/2000/svg">
<path d="M15.5194 2.9C14.9194 2.3 14.0494 2 12.9294 2H7.34938C5.09938 2 3.85938 3.24 3.85938 5.49C3.85938 6.61 4.15938 7.48 4.75938 8.08C5.35938 8.68 6.22937 8.98 7.34938 8.98H12.9294C15.1794 8.98 16.4194 7.74 16.4194 5.49C16.4194 4.37 16.1194 3.5 15.5194 2.9Z" fill="#292D32"/>
<path opacity="0.4" d="M10.5981 15.0195H9.66813C8.71813 15.0195 7.57812 15.3795 7.57812 17.1095V19.8995C7.57812 21.6295 8.71813 21.9895 9.66813 21.9895H10.5981C11.5481 21.9895 12.6881 21.6295 12.6881 19.8995V17.1095C12.6981 15.3895 11.5581 15.0195 10.5981 15.0195Z" fill="#292D32"/>
<path opacity="0.4" d="M16.6492 4.79004H16.3692C16.3992 5.01004 16.4192 5.24004 16.4192 5.49004C16.4192 5.74004 16.3992 5.97004 16.3692 6.19004H16.6492C18.7392 6.19004 18.7392 6.47004 18.7392 8.28004V10.14C18.7392 11.95 18.7392 12.23 16.6492 12.23H12.9292C9.93922 12.23 9.50922 13.65 9.44922 15.03C9.51922 15.03 9.59922 15.02 9.66922 15.02H10.5992C10.6792 15.02 10.7592 15.03 10.8492 15.03C10.8992 14.02 11.1892 13.62 12.9292 13.62H16.6492C19.8992 13.62 20.1392 12.3 20.1392 10.13V8.28004C20.1392 6.11004 19.8992 4.79004 16.6492 4.79004Z" fill="#292D32"/>
</svg>
