<?xml version="1.0" encoding="UTF-8"?>
<svg id="Layer_2" data-name="Layer 2" xmlns="http://www.w3.org/2000/svg" viewBox="0 0 673.45 450.73">
  <defs>
    <style>
      .cls-1 {
        font-family: Broadway, Broadway;
        font-size: 81.75px;
      }

      .cls-1, .cls-2 {
        fill: #231f20;
      }

      .cls-3 {
        letter-spacing: 0em;
      }
    </style>
  </defs>
  <g id="Layer_1-2" data-name="Layer 1">
    <g>
      <text class="cls-1" transform="translate(101.6 170.77) scale(.88 1)"><tspan x="0" y="0">Con</tspan><tspan class="cls-3" x="168.33" y="0">t</tspan><tspan x="204.26" y="0">ent Cooler</tspan></text>
      <path class="cls-2" d="m314.76,343.35h56.64c-13.52,61.42-68.25,107.38-133.73,107.38-75.63,0-136.92-61.3-136.92-136.92,0-10.99,1.3-21.69,3.74-31.92l.22-.9c.03-.13.06-.26.09-.38.05-.2.1-.4.16-.6C44.46,263.53,0,208.22,0,142.5,0,63.8,63.8,0,142.5,0c68.15,0,125.12,47.84,139.19,111.76h-58.96c-12.57-34.89-45.97-59.82-85.19-59.82-50.02,0-90.56,40.54-90.56,90.56,0,46.63,35.23,85,80.52,90-.06.08-.11.15-.17.23.76.07,1.53.12,2.3.16.04-.05.08-.11.12-.16-.52-.05-1.04-.1-1.55-.15-.23-.02-.47-.05-.7-.08,21.07-28.5,52.93-48.54,89.58-54.07.24-.04.47-.06.72-.09.14-.03.29-.04.43-.06.04-.01.07-.02.1-.02l18.97-1.36,16.13.9,23.45,4.81c47.26,14.09,83.82,53.03,94.52,101.66h-56.64c-9.82-27.21-32.82-48.13-61.31-55.02-.99-.24-2-.46-3.01-.67-5.68-1.17-11.54-1.79-17.54-1.79-4.39,0-8.72.34-12.93.96-1.71.25-3.41.55-5.07.91-.06.01-.12.03-.17.04-25.26,5.36-46.47,21.69-58.4,43.76-.03.04-.04.08-.07.13-1.77,3.31-3.34,6.73-4.69,10.28-.22.57-.44,1.14-.64,1.72-.15.4-.29.8-.42,1.2-3,8.78-4.62,18.21-4.62,28.02,0,48.06,38.96,87.01,87.01,87.01,37.68,0,69.77-23.96,81.86-57.47Z"/>
    </g>
  </g>
</svg>